# xmcd
#
# Track frame offsets:
# 182
# 31780
# 64507
# 93127
# 147515
# 185350
# 214935
# 252595
# 279337
# 310370
#
# Disc length: 4483 seconds
#
# Revision: 0
# Processed by: cddbd v1.4PL0 Copyright (c) Steve Scherf et al.
# Submitted via: Axialis_AX_CDPlayer 2.6
#
DISCID=8d11810a
DTITLE=Orbital - Orbital 2
DYEAR=1900
DGENRE=
TTITLE0=The Noebius
TTITLE1=Speed Freak
TTITLE2=Oolaa
TTITLE3=Desert Storm
TTITLE4=Fahrenheit 303
TTITLE5=Steel Cube Idolatry
TTITLE6=High Rose
TTITLE7=Chime Live
TTITLE8=Midnight Live
TTITLE9=Belfast
EXTD=
EXTT0=
EXTT1=
EXTT2=
EXTT3=
EXTT4=
EXTT5=
EXTT6=
EXTT7=
EXTT8=
EXTT9=
PLAYORDER=
